<svg xmlns="http://www.w3.org/2000/svg" width="24" height="24" viewBox="-1.52 -3.28 24 24" fill="none">
<path d="M5.96913 9.33621C5.96913 8.98543 5.68476 8.70105 5.33398 8.70105H3.55899C3.20821 8.70105 2.92383 8.98543 2.92383 9.33621C2.92383 9.68698 3.20821 9.97136 3.55899 9.97136H5.33398C5.68476 9.97136 5.96913 9.68698 5.96913 9.33621Z" fill="#494949"/>
<path fill-rule="evenodd" clip-rule="evenodd" d="M13.8727 0C15.9997 0 17.7239 1.72426 17.7239 3.85123C17.7239 5.97821 15.9997 7.70247 13.8727 7.70247C11.7457 7.70247 10.0215 5.97821 10.0215 3.85123C10.0215 1.72426 11.7457 0 13.8727 0ZM16.5077 3.85123C16.5077 2.39593 15.328 1.21618 13.8727 1.21618C12.4173 1.21618 11.2377 2.39593 11.2377 3.85123C11.2377 5.30654 12.4173 6.48629 13.8727 6.48629C15.328 6.48629 16.5077 5.30654 16.5077 3.85123Z" fill="#494949"/>
<path fill-rule="evenodd" clip-rule="evenodd" d="M13.8716 8.92236C15.7474 8.92236 17.4756 9.34876 18.7562 10.0691C20.0178 10.7787 20.966 11.8542 20.966 13.179L20.966 13.2617C20.967 14.2037 20.9681 15.386 19.9311 16.2304C19.4207 16.646 18.7068 16.9415 17.7421 17.1368C16.7748 17.3326 15.5141 17.4356 13.8716 17.4356C12.2292 17.4356 10.9684 17.3326 10.0011 17.1368C9.03644 16.9415 8.32246 16.646 7.81216 16.2304C6.77516 15.386 6.77629 14.2037 6.77719 13.2617L6.77727 13.179C6.77727 11.8542 7.7254 10.7787 8.98698 10.0691C10.2676 9.34876 11.9958 8.92236 13.8716 8.92236ZM19.7498 13.179C19.7498 12.4888 19.246 11.7399 18.16 11.1291C17.093 10.5289 15.5781 10.1385 13.8716 10.1385C12.1651 10.1385 10.6502 10.5289 9.58324 11.1291C8.49719 11.7399 7.99345 12.4888 7.99345 13.179C7.99345 14.2393 8.02612 14.8362 8.58013 15.2874C8.88053 15.5321 9.38273 15.7708 10.2424 15.9448C11.0993 16.1183 12.2709 16.2194 13.8716 16.2194C15.4723 16.2194 16.6439 16.1183 17.5009 15.9448C18.3605 15.7708 18.8627 15.5321 19.1631 15.2874C19.7171 14.8362 19.7498 14.2393 19.7498 13.179Z" fill="#494949"/>
<path d="M4.7661 14.3264C3.43197 14.3202 2.22649 13.9955 1.3493 13.2142C0.455086 12.4179 0 11.2354 0 9.71825V8.10823C0 6.59116 0.455086 5.40862 1.3493 4.61231C2.23498 3.82348 3.45534 3.5 4.80489 3.5H7.9661V4.70215H4.80489C3.64754 4.70215 2.77881 4.97974 2.20214 5.49324C1.634 5.99925 1.25345 6.82029 1.25345 8.10823V9.71825C1.25345 11.0061 1.634 11.8272 2.20214 12.3332C2.77235 12.841 3.62811 13.1181 4.7661 13.1242V14.3264Z" fill="#494949"/>
<path d="M4.16454 13.725C4.16454 14.0564 4.43317 14.325 4.76454 14.325C5.09591 14.325 5.36454 14.0564 5.36454 13.725C5.36454 13.3936 5.09591 13.125 4.76454 13.125C4.43317 13.125 4.16454 13.3936 4.16454 13.725Z" fill="#494949"/>
<path d="M7.40087 4.1C7.40087 4.43137 7.6695 4.7 8.00087 4.7C8.33224 4.7 8.60087 4.43137 8.60087 4.1C8.60087 3.76863 8.33224 3.5 8.00087 3.5C7.6695 3.5 7.40087 3.76863 7.40087 4.1Z" fill="#494949"/>
<path d="M8.24877 3.99985C8.50823 3.76379 8.48597 3.7613 8.2499 3.50183L6.38185 1.6162C6.14579 1.35674 5.74406 1.33777 5.48461 1.57384C5.22515 1.8099 5.20618 2.21162 5.44224 2.47108L7.04735 4.00024C7.28342 4.25971 7.98931 4.23591 8.24877 3.99985Z" fill="#494949"/>
<path d="M8.39711 4.02398C8.65657 4.26004 8.4954 4.00049 8.39573 4.56066L6.5302 6.40763C6.29413 6.66709 5.89241 6.68605 5.63295 6.44999C5.37349 6.21393 5.35453 5.8122 5.59059 5.55275L7.1957 4.02358C7.43176 3.76412 8.13765 3.78792 8.39711 4.02398Z" fill="#494949"/>
</svg>
