<svg width="20" height="20" viewBox="0 0 20 20" fill="none" xmlns="http://www.w3.org/2000/svg">
<path d="M6.6026 6.66732C6.6026 6.33595 6.33398 6.06732 6.0026 6.06732C5.67123 6.06732 5.4026 6.33595 5.4026 6.66732H6.0026H6.6026ZM5.4026 13.334C5.4026 13.6654 5.67123 13.934 6.0026 13.934C6.33397 13.934 6.6026 13.6654 6.6026 13.334H6.0026H5.4026ZM12.5783 7.90972C12.344 8.14403 12.344 8.52393 12.5783 8.75825C12.8127 8.99256 13.1926 8.99256 13.4269 8.75825L13.0026 8.33398L12.5783 7.90972ZM14.4269 7.75825C14.6612 7.52393 14.6612 7.14403 14.4269 6.90972C14.1926 6.67541 13.8127 6.67541 13.5783 6.90972L14.0026 7.33398L14.4269 7.75825ZM8.24501 12.2431C8.01069 12.4774 8.01069 12.8573 8.24501 13.0916C8.47932 13.3259 8.85922 13.3259 9.09353 13.0916L8.66927 12.6673L8.24501 12.2431ZM10.0935 12.0916C10.3278 11.8573 10.3278 11.4774 10.0935 11.2431C9.85922 11.0087 9.47932 11.0087 9.24501 11.2431L9.66927 11.6673L10.0935 12.0916ZM9.24501 8.75825C9.47932 8.99256 9.85922 8.99256 10.0935 8.75825C10.3278 8.52393 10.3278 8.14403 10.0935 7.90972L9.66927 8.33398L9.24501 8.75825ZM9.09354 6.90972C8.85922 6.67541 8.47932 6.67541 8.24501 6.90972C8.01069 7.14403 8.01069 7.52393 8.24501 7.75825L8.66927 7.33398L9.09354 6.90972ZM13.5783 13.0916C13.8127 13.3259 14.1926 13.3259 14.4269 13.0916C14.6612 12.8573 14.6612 12.4774 14.4269 12.2431L14.0026 12.6673L13.5783 13.0916ZM13.4269 11.2431C13.1926 11.0087 12.8127 11.0087 12.5783 11.2431C12.344 11.4774 12.344 11.8573 12.5783 12.0916L13.0026 11.6673L13.4269 11.2431ZM10.0026 16.6673V16.0673C8.41429 16.0673 7.28342 16.066 6.42498 15.9506C5.5838 15.8375 5.09461 15.6248 4.73651 15.2667L4.31225 15.691L3.88798 16.1153C4.5062 16.7335 5.29084 17.0089 6.26508 17.1399C7.22207 17.2686 8.44822 17.2673 10.0026 17.2673V16.6673ZM3.33594 10.0007H2.73594C2.73594 11.555 2.73466 12.7812 2.86333 13.7382C2.99431 14.7124 3.26977 15.4971 3.88798 16.1153L4.31225 15.691L4.73651 15.2667C4.37842 14.9086 4.16572 14.4195 4.05263 13.5783C3.93721 12.7198 3.93594 11.589 3.93594 10.0007H3.33594ZM16.6693 10.0007H16.0693C16.0693 11.589 16.068 12.7198 15.9526 13.5783C15.8395 14.4195 15.6268 14.9086 15.2687 15.2667L15.693 15.691L16.1172 16.1153C16.7354 15.4971 17.0109 14.7124 17.1419 13.7382C17.2705 12.7812 17.2693 11.555 17.2693 10.0007H16.6693ZM10.0026 16.6673V17.2673C11.557 17.2673 12.7831 17.2686 13.7401 17.1399C14.7144 17.0089 15.499 16.7335 16.1172 16.1153L15.693 15.691L15.2687 15.2667C14.9106 15.6248 14.4214 15.8375 13.5802 15.9506C12.7218 16.066 11.5909 16.0673 10.0026 16.0673V16.6673ZM10.0026 3.33398V3.93398C11.5909 3.93398 12.7218 3.93526 13.5802 4.05067C14.4214 4.16377 14.9106 4.37647 15.2687 4.73456L15.693 4.3103L16.1172 3.88603C15.499 3.26781 14.7144 2.99236 13.7401 2.86137C12.7831 2.73271 11.557 2.73398 10.0026 2.73398V3.33398ZM16.6693 10.0007H17.2693C17.2693 8.44626 17.2705 7.22012 17.1419 6.26313C17.0109 5.28888 16.7354 4.50425 16.1172 3.88603L15.693 4.3103L15.2687 4.73456C15.6268 5.09265 15.8395 5.58185 15.9526 6.42303C16.068 7.28147 16.0693 8.41234 16.0693 10.0007H16.6693ZM10.0026 3.33398V2.73398C8.44822 2.73398 7.22207 2.73271 6.26508 2.86137C5.29084 2.99236 4.5062 3.26781 3.88798 3.88603L4.31225 4.3103L4.73651 4.73456C5.09461 4.37647 5.5838 4.16377 6.42498 4.05067C7.28342 3.93526 8.41429 3.93398 10.0026 3.93398V3.33398ZM3.33594 10.0007H3.93594C3.93594 8.41234 3.93721 7.28147 4.05263 6.42303C4.16572 5.58185 4.37842 5.09265 4.73651 4.73456L4.31225 4.3103L3.88798 3.88603C3.26977 4.50425 2.99431 5.28888 2.86333 6.26313C2.73466 7.22012 2.73594 8.44626 2.73594 10.0007H3.33594ZM6.0026 6.66732H5.4026L5.4026 13.334H6.0026H6.6026L6.6026 6.66732H6.0026ZM11.3359 12.0007V11.4007C10.5627 11.4007 9.93594 10.7738 9.93594 10.0007H9.33594H8.73594C8.73594 11.4366 9.9 12.6007 11.3359 12.6007V12.0007ZM13.3359 10.0007H12.7359C12.7359 10.7738 12.1091 11.4007 11.3359 11.4007V12.0007V12.6007C12.7719 12.6007 13.9359 11.4366 13.9359 10.0007H13.3359ZM11.3359 8.00065V8.60065C12.1091 8.60065 12.7359 9.22745 12.7359 10.0007H13.3359H13.9359C13.9359 8.56471 12.7719 7.40065 11.3359 7.40065V8.00065ZM11.3359 8.00065V7.40065C9.9 7.40065 8.73594 8.56471 8.73594 10.0007H9.33594H9.93594C9.93594 9.22745 10.5627 8.60065 11.3359 8.60065V8.00065ZM13.0026 8.33398L13.4269 8.75825L14.4269 7.75825L14.0026 7.33398L13.5783 6.90972L12.5783 7.90972L13.0026 8.33398ZM8.66927 12.6673L9.09353 13.0916L10.0935 12.0916L9.66927 11.6673L9.24501 11.2431L8.24501 12.2431L8.66927 12.6673ZM9.66927 8.33398L10.0935 7.90972L9.09354 6.90972L8.66927 7.33398L8.24501 7.75825L9.24501 8.75825L9.66927 8.33398ZM14.0026 12.6673L14.4269 12.2431L13.4269 11.2431L13.0026 11.6673L12.5783 12.0916L13.5783 13.0916L14.0026 12.6673Z" fill="black"/>
</svg>
