<svg width="24" height="24" viewBox="0 0 24 24" fill="none" xmlns="http://www.w3.org/2000/svg">
  <g transform="translate(3.25, 3.25)">
    <path d="M15.1743 6.10253L11.4385 2.33811M15.1743 6.10253L10.506 10.8065C9.89077 11.4265 9.14409 11.9158 8.28682 12.0648C7.42124 12.2153 6.34706 12.2654 5.83479 11.7492C5.32254 11.233 5.37222 10.1505 5.52151 9.27829C5.66936 8.41445 6.15505 7.66204 6.77019 7.04213L11.4385 2.33811M15.1743 6.10253C15.1743 6.10253 17.976 3.27922 16.1081 1.39701C14.2402 -0.4852 11.4385 2.33811 11.4385 2.33811M16.627 8.74939C16.627 14.8666 14.7591 16.7488 8.68851 16.7488C2.61788 16.7488 0.75 14.8666 0.75 8.74939C0.75 2.63221 2.61788 0.75 8.68851 0.75" stroke="black" stroke-width="1.5" stroke-linecap="round" stroke-linejoin="round"/>
  </g>
</svg>
