<svg viewBox="-3.4 -3.4 24 24" width="24" height="24" fill="none" xmlns="http://www.w3.org/2000/svg">
<path id="Vector" d="M5.40078 12C5.06941 12 4.80078 12.2686 4.80078 12.6C4.80078 12.9314 5.06941 13.2 5.40078 13.2V12.6V12ZM9.66745 13.2C9.99882 13.2 10.2674 12.9314 10.2674 12.6C10.2674 12.2686 9.99882 12 9.66745 12V12.6V13.2ZM7.53411 4C7.20274 4 6.93411 4.26863 6.93411 4.6C6.93411 4.93137 7.20274 5.2 7.53411 5.2V4.6V4ZM11.8008 5.2C12.1322 5.2 12.4008 4.93137 12.4008 4.6C12.4008 4.26863 12.1322 4 11.8008 4V4.6V5.2ZM8.6 16.6V16C6.69742 16 5.33084 15.9987 4.29086 15.8589C3.26814 15.7214 2.65156 15.4599 2.19584 15.0042L1.77157 15.4284L1.34731 15.8527C2.06316 16.5685 2.97518 16.8928 4.13096 17.0482C5.26949 17.2013 6.73134 17.2 8.6 17.2V16.6ZM0.6 8.6H3.57628e-07C3.57628e-07 10.4687 -0.00127387 11.9305 0.151797 13.069C0.307189 14.2248 0.631461 15.1368 1.34731 15.8527L1.77157 15.4284L2.19584 15.0042C1.74011 14.5484 1.4786 13.9319 1.3411 12.9091C1.20127 11.8692 1.2 10.5026 1.2 8.6H0.6ZM16.6 8.6H16C16 10.5026 15.9987 11.8692 15.8589 12.9091C15.7214 13.9319 15.4599 14.5484 15.0042 15.0042L15.4284 15.4284L15.8527 15.8527C16.5685 15.1368 16.8928 14.2248 17.0482 13.069C17.2013 11.9305 17.2 10.4687 17.2 8.6H16.6ZM8.6 16.6V17.2C10.4687 17.2 11.9305 17.2013 13.069 17.0482C14.2248 16.8928 15.1368 16.5685 15.8527 15.8527L15.4284 15.4284L15.0042 15.0042C14.5484 15.4599 13.9319 15.7214 12.9091 15.8589C11.8692 15.9987 10.5026 16 8.6 16V16.6ZM8.6 0.6V1.2C10.5026 1.2 11.8692 1.20127 12.9091 1.3411C13.9319 1.4786 14.5484 1.74011 15.0042 2.19584L15.4284 1.77157L15.8527 1.34731C15.1368 0.631461 14.2248 0.307189 13.069 0.151797C11.9305 -0.00127387 10.4687 3.57628e-07 8.6 3.57628e-07V0.6ZM16.6 8.6H17.2C17.2 6.73134 17.2013 5.26949 17.0482 4.13096C16.8928 2.97518 16.5685 2.06316 15.8527 1.34731L15.4284 1.77157L15.0042 2.19584C15.4599 2.65156 15.7214 3.26814 15.8589 4.29086C15.9987 5.33084 16 6.69742 16 8.6H16.6ZM8.6 0.6V3.57628e-07C6.73134 3.57628e-07 5.26949 -0.00127387 4.13096 0.151797C2.97518 0.307189 2.06316 0.631461 1.34731 1.34731L1.77157 1.77157L2.19584 2.19584C2.65156 1.74011 3.26814 1.4786 4.29086 1.3411C5.33084 1.20127 6.69742 1.2 8.6 1.2V0.6ZM0.6 8.6H1.2C1.2 6.69742 1.20127 5.33084 1.3411 4.29086C1.4786 3.26814 1.74011 2.65156 2.19584 2.19584L1.77157 1.77157L1.34731 1.34731C0.631461 2.06316 0.307189 2.97518 0.151797 4.13096C-0.00127387 5.26949 3.57628e-07 6.73134 3.57628e-07 8.6H0.6ZM5.40078 12.6V13.2H7.53411V12.6V12H5.40078V12.6ZM7.53411 12.6V13.2H9.66745V12.6V12H7.53411V12.6ZM7.53411 4.6V5.2H9.66745V4.6V4H7.53411V4.6ZM9.66745 4.6V5.2H11.8008V4.6V4H9.66745V4.6ZM7.53411 12.6L8.11386 12.7546L10.2472 4.7546L9.66745 4.6L9.08771 4.4454L6.95437 12.4454L7.53411 12.6Z" fill="black"/>
</svg>
