<svg width="24" height="24" viewBox="0 0 24 24" fill="none" xmlns="http://www.w3.org/2000/svg">
  <g transform="translate(6, 6)">
    <path d="M2 0.4C2 0.179086 1.82091 0 1.6 0H0.4C0.179086 0 0 0.179086 0 0.4V1.6C0 1.82091 0.179086 2 0.4 2H1.6C1.82091 2 2 1.82091 2 1.6V0.4ZM0 10.4C0 10.1791 0.179086 10 0.4 10H1.6C1.82091 10 2 10.1791 2 10.4V11.6C2 11.8209 1.82091 12 1.6 12H0.4C0.179086 12 0 11.8209 0 11.6V10.4ZM12 0.4C12 0.179086 11.8209 0 11.6 0H10.4C10.1791 0 10 0.179086 10 0.4V1.6C10 1.82091 10.1791 2 10.4 2H11.6C11.8209 2 12 1.82091 12 1.6V0.4Z" fill="black"/>
    <path d="M7.00977 8C7.00977 7.44772 7.45748 7 8.00977 7C8.56205 7 9.00977 7.44772 9.00977 8V9H11.0098V8C11.0098 7.44772 11.4575 7 12.0098 7C12.5621 7 13.0098 7.44772 13.0098 8V9H11.0098V11H13.0098V13H14.0098C14.5621 13 15.0098 13.4477 15.0098 14C15.0098 14.5523 14.5621 15 14.0098 15C13.4575 15 13.0098 14.5523 13.0098 14V13H11.0098V14C11.0098 14.5523 10.5621 15 10.0098 15C9.45748 15 9.00977 14.5523 9.00977 14V13H11.0098V11H9.00977V9H8.00977C7.45748 9 7.00977 8.55228 7.00977 8Z" fill="black"/>
    <path d="M15.0098 10C15.0098 9.44772 14.5621 9 14.0098 9H13.0098V11H14.0098C14.5621 11 15.0098 10.5523 15.0098 10Z" fill="black"/>
    <path d="M9.00977 11H8.00977C7.45748 11 7.00977 11.4477 7.00977 12C7.00977 12.5523 7.45748 13 8.00977 13H9.00977V11Z" fill="black"/>
  </g>
  <rect x="3" y="3" width="8" height="8" rx="2" stroke="black" stroke-width="1.3" fill="none"/>
  <rect x="3" y="13" width="8" height="8" rx="2" stroke="black" stroke-width="1.3" fill="none"/>
  <rect x="13" y="3" width="8" height="8" rx="2" stroke="black" stroke-width="1.3" fill="none"/>
</svg>
